<mxfile host="app.diagrams.net" modified="2024-01-16T10:00:00.000Z" agent="5.0" version="22.1.16" type="device">
  <diagram name="Pipeline CI/CD" id="cicd">
    <mxGraphModel dx="1200" dy="800" grid="1" gridSize="10" guides="1" tooltips="1" connect="1" arrows="1" fold="1" page="1" pageScale="1" pageWidth="827" pageHeight="1169" math="0" shadow="0">
      <root>
        <mxCell id="0" />
        <mxCell id="1" parent="0" />
        
        <mxCell id="title" value="R-Type 2 - Pipeline CI/CD" style="text;html=1;strokeColor=none;fillColor=none;align=center;verticalAlign=middle;whiteSpace=wrap;rounded=0;fontSize=18;fontStyle=1;" vertex="1" parent="1">
          <mxGeometry x="200" y="40" width="400" height="30" as="geometry" />
        </mxCell>
        
        <mxCell id="developer" value="👨‍💻 Développeur" style="rounded=1;whiteSpace=wrap;html=1;fillColor=#f0f0f0;strokeColor=#666666;fontSize=12;" vertex="1" parent="1">
          <mxGeometry x="80" y="100" width="100" height="50" as="geometry" />
        </mxCell>
        
        <mxCell id="git" value="📁 Git Repository&#xa;GitHub/GitLab" style="rounded=1;whiteSpace=wrap;html=1;fillColor=#e1d5e7;strokeColor=#9673a6;fontSize=11;" vertex="1" parent="1">
          <mxGeometry x="220" y="100" width="100" height="50" as="geometry" />
        </mxCell>
        
        <mxCell id="trigger" value="🔄 CI/CD Trigger&#xa;Push to main" style="rounded=1;whiteSpace=wrap;html=1;fillColor=#dae8fc;strokeColor=#6c8ebf;fontSize=11;" vertex="1" parent="1">
          <mxGeometry x="360" y="100" width="100" height="50" as="geometry" />
        </mxCell>
        
        <mxCell id="build-stage" value="🔨 BUILD" style="rounded=1;whiteSpace=wrap;html=1;fillColor=#fff2cc;strokeColor=#d6b656;fontSize=12;fontStyle=1;" vertex="1" parent="1">
          <mxGeometry x="80" y="200" width="80" height="40" as="geometry" />
        </mxCell>
        
        <mxCell id="test-stage" value="🧪 TEST" style="rounded=1;whiteSpace=wrap;html=1;fillColor=#d5e8d4;strokeColor=#82b366;fontSize=12;fontStyle=1;" vertex="1" parent="1">
          <mxGeometry x="180" y="200" width="80" height="40" as="geometry" />
        </mxCell>
        
        <mxCell id="quality-stage" value="📊 QUALITY" style="rounded=1;whiteSpace=wrap;html=1;fillColor=#f8cecc;strokeColor=#b85450;fontSize=12;fontStyle=1;" vertex="1" parent="1">
          <mxGeometry x="280" y="200" width="80" height="40" as="geometry" />
        </mxCell>
        
        <mxCell id="deploy-stage" value="🚀 DEPLOY" style="rounded=1;whiteSpace=wrap;html=1;fillColor=#dae8fc;strokeColor=#6c8ebf;fontSize=12;fontStyle=1;" vertex="1" parent="1">
          <mxGeometry x="380" y="200" width="80" height="40" as="geometry" />
        </mxCell>
        
        <mxCell id="dev-env" value="🔧 DEV" style="rounded=1;whiteSpace=wrap;html=1;fillColor=#d5e8d4;strokeColor=#82b366;fontSize=11;" vertex="1" parent="1">
          <mxGeometry x="80" y="280" width="60" height="30" as="geometry" />
        </mxCell>
        
        <mxCell id="staging-env" value="🧪 STAGING" style="rounded=1;whiteSpace=wrap;html=1;fillColor=#fff2cc;strokeColor=#d6b656;fontSize=11;" vertex="1" parent="1">
          <mxGeometry x="160" y="280" width="80" height="30" as="geometry" />
        </mxCell>
        
        <mxCell id="prod-env" value="🚀 PROD" style="rounded=1;whiteSpace=wrap;html=1;fillColor=#f8cecc;strokeColor=#b85450;fontSize=11;" vertex="1" parent="1">
          <mxGeometry x="260" y="280" width="60" height="30" as="geometry" />
        </mxCell>
        
        <mxCell id="aws-services" value="☁️ AWS Services&#xa;S3 + CloudFront" style="rounded=1;whiteSpace=wrap;html=1;fillColor=#dae8fc;strokeColor=#6c8ebf;fontSize=11;" vertex="1" parent="1">
          <mxGeometry x="340" y="280" width="100" height="40" as="geometry" />
        </mxCell>
        
        <mxCell id="flow1" style="edgeStyle=orthogonalEdgeStyle;rounded=0;orthogonalLoop=1;jettySize=auto;html=1;exitX=1;exitY=0.5;exitDx=0;exitDy=0;entryX=0;entryY=0.5;entryDx=0;entryDy=0;strokeWidth=2;strokeColor=#2D7600;" edge="1" parent="1" source="developer" target="git">
          <mxGeometry relative="1" as="geometry" />
        </mxCell>
        
        <mxCell id="flow2" style="edgeStyle=orthogonalEdgeStyle;rounded=0;orthogonalLoop=1;jettySize=auto;html=1;exitX=1;exitY=0.5;exitDx=0;exitDy=0;entryX=0;entryY=0.5;entryDx=0;entryDy=0;strokeWidth=2;strokeColor=#1BA1E2;" edge="1" parent="1" source="git" target="trigger">
          <mxGeometry relative="1" as="geometry" />
        </mxCell>
        
        <mxCell id="pipeline-flow" style="edgeStyle=orthogonalEdgeStyle;rounded=0;orthogonalLoop=1;jettySize=auto;html=1;exitX=1;exitY=0.5;exitDx=0;exitDy=0;entryX=0;entryY=0.5;entryDx=0;entryDy=0;strokeWidth=2;strokeColor=#FF8000;" edge="1" parent="1" source="build-stage" target="test-stage">
          <mxGeometry relative="1" as="geometry" />
        </mxCell>
        
        <mxCell id="pipeline-flow2" style="edgeStyle=orthogonalEdgeStyle;rounded=0;orthogonalLoop=1;jettySize=auto;html=1;exitX=1;exitY=0.5;exitDx=0;exitDy=0;entryX=0;entryY=0.5;entryDx=0;entryDy=0;strokeWidth=2;strokeColor=#FF8000;" edge="1" parent="1" source="test-stage" target="quality-stage">
          <mxGeometry relative="1" as="geometry" />
        </mxCell>
        
        <mxCell id="pipeline-flow3" style="edgeStyle=orthogonalEdgeStyle;rounded=0;orthogonalLoop=1;jettySize=auto;html=1;exitX=1;exitY=0.5;exitDx=0;exitDy=0;entryX=0;entryY=0.5;entryDx=0;entryDy=0;strokeWidth=2;strokeColor=#FF8000;" edge="1" parent="1" source="quality-stage" target="deploy-stage">
          <mxGeometry relative="1" as="geometry" />
        </mxCell>
        
        <mxCell id="github-actions" value="🐙 GitHub Actions&#xa;&#xa;name: Deploy R-Type 2&#xa;on:&#xa;  push:&#xa;    branches: [main]&#xa;jobs:&#xa;  deploy:&#xa;    runs-on: ubuntu-latest&#xa;    steps:&#xa;      - uses: actions/checkout@v3&#xa;      - name: Configure AWS&#xa;        uses: aws-actions/configure-aws-credentials@v2&#xa;      - name: Deploy&#xa;        run: |&#xa;          cd cloudformation&#xa;          make deploy ENVIRONMENT=prod" style="text;html=1;strokeColor=#666666;fillColor=#f0f0f0;align=left;verticalAlign=top;whiteSpace=wrap;rounded=1;fontFamily=monospace;fontSize=8;" vertex="1" parent="1">
          <mxGeometry x="80" y="360" width="280" height="160" as="geometry" />
        </mxCell>
        
        <mxCell id="gitlab-ci" value="🦊 GitLab CI&#xa;&#xa;stages:&#xa;  - build&#xa;  - test&#xa;  - deploy&#xa;&#xa;build:&#xa;  stage: build&#xa;  script:&#xa;    - ./cloudformation/build.sh prod&#xa;&#xa;test:&#xa;  stage: test&#xa;  script:&#xa;    - npm test&#xa;&#xa;deploy:&#xa;  stage: deploy&#xa;  script:&#xa;    - cd cloudformation&#xa;    - make deploy ENVIRONMENT=prod&#xa;  only:&#xa;    - main" style="text;html=1;strokeColor=#666666;fillColor=#f0f0f0;align=left;verticalAlign=top;whiteSpace=wrap;rounded=1;fontFamily=monospace;fontSize=8;" vertex="1" parent="1">
          <mxGeometry x="400" y="360" width="280" height="180" as="geometry" />
        </mxCell>
        
        <mxCell id="metrics" value="📊 Métriques Pipeline&#xa;&#xa;Performance:&#xa;• Build time: &lt;2min&#xa;• Test coverage: &gt;95%&#xa;• Deploy time: &lt;5min&#xa;• Success rate: &gt;99%&#xa;• MTTR: &lt;10min&#xa;&#xa;Qualité:&#xa;• Code quality gates&#xa;• Security scanning&#xa;• Automated testing&#xa;• Deployment validation" style="text;html=1;strokeColor=#d6b656;fillColor=#fff2cc;align=left;verticalAlign=top;whiteSpace=wrap;rounded=1;fontSize=10;" vertex="1" parent="1">
          <mxGeometry x="80" y="560" width="200" height="140" as="geometry" />
        </mxCell>
        
        <mxCell id="rollback" value="🔄 Stratégie Rollback&#xa;&#xa;Processus:&#xa;1. Détecter le problème&#xa;2. Arrêter déploiement&#xa;3. Restaurer version S3&#xa;4. Invalider cache CloudFront&#xa;5. Vérifier rollback&#xa;6. Notifier équipe&#xa;7. Analyser cause racine&#xa;&#xa;Triggers:&#xa;• Health check failed&#xa;• Error rate spike&#xa;• Manual intervention" style="text;html=1;strokeColor=#b85450;fillColor=#f8cecc;align=left;verticalAlign=top;whiteSpace=wrap;rounded=1;fontSize=10;" vertex="1" parent="1">
          <mxGeometry x="320" y="560" width="200" height="160" as="geometry" />
        </mxCell>
        
        <mxCell id="monitoring" value="📈 Monitoring &amp; Alertes&#xa;&#xa;Surveillance:&#xa;• Pipeline status&#xa;• Deployment health&#xa;• Application metrics&#xa;• Error tracking&#xa;&#xa;Notifications:&#xa;• Email alerts&#xa;• Slack integration&#xa;• Dashboard updates&#xa;• Status badges&#xa;&#xa;KPIs:&#xa;• Deployment frequency&#xa;• Lead time for changes&#xa;• Change failure rate" style="text;html=1;strokeColor=#82b366;fillColor=#d5e8d4;align=left;verticalAlign=top;whiteSpace=wrap;rounded=1;fontSize=10;" vertex="1" parent="1">
          <mxGeometry x="560" y="560" width="180" height="180" as="geometry" />
        </mxCell>
      </root>
    </mxGraphModel>
  </diagram>
</mxfile>
